<?xml version="1.0" encoding="UTF-8"?>
<svg id="Layer_1" data-name="Layer 1" xmlns="http://www.w3.org/2000/svg" xmlns:xlink="http://www.w3.org/1999/xlink" viewBox="0 0 300 298.18">
  <defs>
    <style>
      .cls-1 {
        fill: url(#linear-gradient);
        stroke-width: 0px;
      }
    </style>
    <linearGradient id="linear-gradient" x1="22.9" y1="53.71" x2="262.05" y2="234.9" gradientUnits="userSpaceOnUse">
      <stop offset="0" stop-color="#7912ff"/>
      <stop offset="1" stop-color="#d2bbff"/>
    </linearGradient>
  </defs>
  <path class="cls-1" d="m126.47,298.01c-1.02.2-2-.14-2.98-.31-7.06-1.27-14.01-3-20.81-5.28-6.24-2.08-12.33-4.55-18.25-7.44-7.02-3.43-13.75-7.37-20.15-11.85-8.69-6.07-16.65-12.97-23.88-20.72-7.13-7.64-13.39-15.91-18.81-24.84-4.61-7.6-8.5-15.55-11.69-23.85-3.07-7.96-5.42-16.14-7.07-24.51-1.4-7.13-2.33-14.33-2.66-21.6-.33-7.21-.18-14.41.48-21.61.76-8.25,2.2-16.37,4.3-24.38,1.85-7.03,4.23-13.88,7.09-20.57,3.39-7.92,7.43-15.47,12.11-22.69,5.23-8.07,11.2-15.56,17.87-22.48,8.59-8.91,18.13-16.65,28.63-23.2,6.5-4.05,13.27-7.57,20.31-10.6,6.57-2.82,13.3-5.16,20.2-7.02,6.02-1.63,12.13-2.79,18.3-3.66C136.87.37,144.3-.07,151.77,0c7.78.09,15.51.76,23.18,2.06,8.29,1.4,16.41,3.44,24.35,6.21,13.07,4.55,25.28,10.8,36.61,18.73,6.89,4.83,13.34,10.19,19.34,16.1,8.45,8.33,15.84,17.52,22.11,27.59,4,6.42,7.48,13.1,10.48,20.05,3.75,8.71,6.65,17.68,8.68,26.94,1.93,8.8,3.1,17.69,3.39,26.7.21,6.75.04,13.48-.6,20.2-.77,8.12-2.21,16.12-4.29,23.99-1.86,7.02-4.26,13.87-7.13,20.56-5.91,13.79-13.73,26.37-23.41,37.81-8.16,9.64-17.4,18.11-27.7,25.43-8.38,5.95-17.27,11-26.69,15.12-6.52,2.85-13.21,5.21-20.07,7.12-5.28,1.47-10.64,2.54-16.02,3.51-.16.03-.38.13-.46-.15.15-.4.07-.81.07-1.21,0-33.94,0-67.89,0-101.83,0-.28.01-.57,0-.85-.01-.35.13-.52.49-.51.25,0,.5,0,.75,0,10.85,0,21.71,0,32.56,0,.29,0,.62.15.89-.12.49-1.84.66-3.74.95-5.62.87-5.56,1.69-11.12,2.54-16.68,0-.06.06-.11.09-.16.07.06.09.14.13.22.02.04,0-.04,0-.05.24-2,.52-3.99.9-5.97.11-.54.2-1.1.13-1.66.46-3.16.92-6.31,1.39-9.47.17-1.14.34-2.29.53-3.43.08-.48-.02-.72-.56-.67-.25.02-.5,0-.75,0-13.07,0-26.14,0-39.2-.01-.3,0-.68.22-.93-.17.23-.15.49-.09.73-.09,13.2,0,26.41,0,39.61,0,.21,0,.44-.06.64.09-.18-.23-.43-.09-.63-.09-13.08,0-26.16,0-39.24,0-1.03,0-1.03,0-1.03-1,0-9.47,0-18.94,0-28.41,0-.91.16-1.8.29-2.7.04-.31.14-.61,0-.92,1.21-8.89,7.04-15.27,15.78-17.26,2.11-.48,4.24-.82,6.42-.81.23.13.49.08.74.08,6.4,0,12.8,0,19.19,0,.25,0,.57.16.76-.16,0-4.32.02-8.65.02-12.97,0-7.68-.01-15.36.02-23.03,0-.81-.25-1.08-1.02-1.17-1.64-.2-3.27-.5-4.91-.75.1-.07.19-.17.33-.07.01-.16-.08-.04-.13-.05-5.6-.69-11.22-1.23-16.85-1.66-1.7-.13-3.41-.36-5.13-.15-3.79,0-7.58-.18-11.37.1-8.1.6-15.92,2.31-23.23,5.97-9.92,4.96-17.22,12.47-21.97,22.48-3.16,6.67-4.88,13.72-5.61,21.04-.31,3.1-.4,6.19-.4,9.3,0,10.45-.01,20.9.03,31.34,0,.93-.26,1.12-1.15,1.11-11.92-.03-23.84-.02-35.77-.02-.41,0-.82.01-1.22.02-.27.26-.13.6-.13.89,0,13.9,0,27.8,0,41.71,0,.29-.15.63.15.88h-.05s0-.05,0-.05c.28.32.65.15.97.15,11.86.01,23.72,0,35.57.01,1.44,0,1.48-.32,1.48,1.46,0,33.79,0,67.57,0,101.36,0,.53-.02,1.07.02,1.6Z"/>
</svg>