<?xml version="1.0" encoding="UTF-8"?>
<svg id="Layer_1" data-name="Layer 1" xmlns="http://www.w3.org/2000/svg" xmlns:xlink="http://www.w3.org/1999/xlink" viewBox="0 0 300 291.97">
  <defs>
    <style>
      .cls-1 {
        fill: url(#linear-gradient);
        stroke-width: 0px;
      }
    </style>
    <linearGradient id="linear-gradient" x1="39.27" y1="38.77" x2="251.15" y2="251.16" gradientUnits="userSpaceOnUse">
      <stop offset="0" stop-color="#8140ff"/>
      <stop offset="1" stop-color="#c8bbff"/>
    </linearGradient>
  </defs>
  <path class="cls-1" d="m181.49,216.35c3.3-.74,6.68-1.43,10.02-2.27,11.86-2.97,23.08-7.47,33.15-14.51,14.51-10.14,23.98-23.69,27.63-41.14,1.59-7.59,1.82-15.25,1.23-22.95-.67-8.67-2.46-17.09-5.87-25.13-3.04-7.18-7.2-13.64-12.51-19.36-.16-.17-.3-.35-.52-.59,1.82-3.06,2.79-6.44,3.37-9.93,1.69-10.11,1.18-19.99-3.38-29.38-.7-1.44-1.67-2.75-2.48-4.15-.38-.65-.88-.81-1.61-.8-11.31.25-21.68,3.56-31.2,9.61-4.3,2.73-8.25,5.9-11.76,9.6-.24.26-.82.46-1.13.36-11.47-3.84-23.32-5-35.32-5.11-11.54-.11-22.95.96-34.07,4.22-1.43.42-2.97,1.47-4.22,1.19-1.2-.27-2.06-1.94-3.13-2.93-8.7-8.07-18.75-13.6-30.46-15.84-3.27-.63-6.63-.73-9.95-1.09-.7-.08-1.11.19-1.52.76-3.34,4.66-5.21,9.91-6.05,15.52-1.16,7.67-.73,15.26,1.78,22.65.67,1.98,1.69,3.85,2.65,5.99-.07.08-.33.39-.61.68-10.32,11-16.33,24.04-18.45,38.92-1.48,10.38-1.31,20.7,1.3,30.9,3.96,15.5,12.74,27.7,25.59,37.06,9.94,7.24,21.07,11.94,32.91,15.02,3.71.96,7.48,1.7,11.23,2.54.22.05.43.12.76.21-1.68,3.11-2.54,6.4-2.88,9.81-.3,3.02-.47,6.05-.56,9.08-.03.99-.37,1.39-1.25,1.68-5.76,1.93-11.66,2.31-17.65,1.72-5.57-.55-10.84-2.08-15.7-4.92-4.57-2.68-8.2-6.28-11.02-10.76-4.78-7.59-11.35-12.72-20.28-14.55-2.64-.54-5.27-.58-7.85.31-2.18.76-2.67,2.17-1.22,3.96.98,1.21,2.13,2.37,3.42,3.23,5.68,3.77,9.55,9.06,12.75,14.92,1.05,1.92,2.06,3.88,2.86,5.9,2.98,7.51,8.21,13.1,14.88,17.41,8.28,5.35,17.49,7.4,27.23,7.01,4.55-.18,9.08-.85,13.72-1.31,0,0,.06.29.06.57,0,6.38.1,12.77-.03,19.15-.1,4.88-2.36,8.7-6.59,11.18-2.29,1.34-4.78,1.52-7.33.61-35.52-12.55-62.83-35.08-81.76-67.63-9.19-15.8-15.02-32.83-17.84-50.9-1.98-12.68-2.37-25.41-1.05-38.16,3.07-29.55,13.87-55.99,32.59-79.07C52.15,32.48,75.82,16.27,104.23,7.11,122.58,1.19,141.41-.98,160.64.41c30.6,2.21,58.07,12.72,82.12,31.74,27.05,21.4,44.74,48.96,53.02,82.48,3.6,14.58,4.92,29.41,3.87,44.39-2.69,38.6-17.94,71.47-45.63,98.46-15.77,15.38-34.25,26.5-55.04,33.81-4.45,1.56-8.47-.13-10.93-2.98-2.27-2.63-3.48-5.65-3.47-9.16.01-15,.02-29.99-.01-44.99,0-4.19-.08-8.4-1.16-12.48-.48-1.8-1.26-3.52-1.93-5.35Z"/>
</svg>