<?xml version="1.0" encoding="UTF-8"?>
<svg id="Layer_1" data-name="Layer 1" xmlns="http://www.w3.org/2000/svg" xmlns:xlink="http://www.w3.org/1999/xlink" viewBox="0 0 199 136.94">
  <defs>
    <style>
      .cls-1 {
        fill: url(#linear-gradient);
        stroke-width: 0px;
      }
    </style>
    <linearGradient id="linear-gradient" x1="21.11" y1="9.5" x2="179.81" y2="128.93" gradientUnits="userSpaceOnUse">
      <stop offset="0" stop-color="#7c00ff"/>
      <stop offset="1" stop-color="#dfbbff"/>
    </linearGradient>
  </defs>
  <path class="cls-1" d="m99.54,0c25.3,0,50.59,0,75.89,0,4.78,0,9.26,1.03,13.28,3.66,5.51,3.6,8.81,8.68,9.91,15.14.27,1.58.37,3.2.37,4.8.02,30.02.01,60.03.02,90.05,0,4.64-1.04,8.99-3.57,12.92-3.38,5.24-8.17,8.51-14.27,9.81-1.75.37-3.58.54-5.38.54-50.84.03-101.69.02-152.53.03-5.69,0-10.82-1.62-15.2-5.27-4.2-3.51-6.75-8-7.64-13.38-.26-1.54-.38-3.12-.38-4.68C0,83.45,0,53.29,0,23.12c0-5.08,1.32-9.75,4.34-13.87C7.81,4.51,12.49,1.59,18.26.5c1.8-.34,3.68-.47,5.52-.47C49.03,0,74.29,0,99.54,0ZM17.3,116.67l.09.08c1.1-.8,2.21-1.6,3.31-2.39,9.54-6.89,19.08-13.79,28.62-20.68,8.64-6.24,17.28-12.48,25.9-18.73.41-.3.67-.3,1.09-.03,7.53,4.85,15.08,9.67,22.6,14.52.45.29.74.25,1.16-.03,7.28-4.84,14.56-9.66,21.84-14.5.39-.26.64-.26,1.04.02,5.25,3.77,10.51,7.52,15.77,11.27,13.53,9.65,27.05,19.29,40.58,28.94.69.49,1.38.97,2.07,1.46.03-.04.07-.08.1-.12-15.84-15.99-31.68-31.98-47.55-48,19.25-15.1,38.43-30.15,57.61-45.2-.26,0-.46.1-.66.21-8.12,4.33-16.25,8.66-24.37,13-14.96,7.99-29.93,15.99-44.89,23.98-7.23,3.86-14.47,7.72-21.69,11.6-.39.21-.65.11-.97-.06-12.63-6.8-25.26-13.59-37.89-20.39-9.81-5.28-19.61-10.55-29.42-15.83-7.88-4.24-15.77-8.49-23.65-12.73-.4-.21-.81-.41-1.21-.62-.02.03-.03.07-.05.1,19.43,15.05,38.85,30.1,58.32,45.17-15.95,16.35-31.85,32.66-47.75,48.96Z"/>
</svg>